<mxfile host="app.diagrams.net" modified="2024-05-24T23:07:58.206Z" agent="Mozilla/5.0 (Windows NT 10.0; Win64; x64) AppleWebKit/537.36 (KHTML, like Gecko) Chrome/123.0.0.0 Safari/537.36" version="24.4.8" etag="VBAPP47FwfqO1YE1k1D7" type="github">
  <diagram name="PÃ¡gina-1" id="tU6KsbZy2ZI-yMl2X3EQ">
    <mxGraphModel>
      <root>
        <mxCell id="0" />
        <mxCell id="1" parent="0" />
      </root>
    </mxGraphModel>
  </diagram>
</mxfile>
